<svg xmlns="http://www.w3.org/2000/svg" viewBox="0 0 346.54 88.02"><defs><style>.cls-1{fill:#fff;}</style></defs><title>logoRecurso 4</title><g id="Capa_2" data-name="Capa 2"><g id="Capa_1-2" data-name="Capa 1"><path class="cls-1" d="M9.28,22.09H53.6V31H19.9V58.35H51v8.8H19.9v37.24H9.28Z" transform="translate(-9.28 -17.71)"/><path class="cls-1" d="M77.17,28.68c.12,3.67-2.57,6.6-6.84,6.6a6.39,6.39,0,0,1-6.47-6.6A6.55,6.55,0,0,1,70.57,22,6.38,6.38,0,0,1,77.17,28.68Zm-12,75.71V45.29H75.94v59.1Z" transform="translate(-9.28 -17.71)"/><path class="cls-1" d="M92.3,93.4a28.27,28.27,0,0,0,14.17,4.27c7.81,0,11.48-3.91,11.48-8.79,0-5.13-3.06-7.94-11-10.87-10.63-3.78-15.63-9.64-15.63-16.72C91.33,51.76,99,44,111.72,44a29.56,29.56,0,0,1,14.53,3.66l-2.69,7.81A23,23,0,0,0,111.47,52c-6.35,0-9.89,3.66-9.89,8.05,0,4.89,3.54,7.09,11.24,10,10.25,3.9,15.5,9,15.5,17.82,0,10.38-8,17.83-22.1,17.83a33.69,33.69,0,0,1-16.6-4.15Z" transform="translate(-9.28 -17.71)"/><path class="cls-1" d="M154.08,28.68c.13,3.67-2.56,6.6-6.83,6.6a6.39,6.39,0,0,1-6.48-6.6A6.55,6.55,0,0,1,147.49,22,6.37,6.37,0,0,1,154.08,28.68Zm-12,75.71V45.29h10.74v59.1Z" transform="translate(-9.28 -17.71)"/><path class="cls-1" d="M171.31,17.71h16.34v86.68H171.31Zm7.16,70.94h27.66c3.73,0,6.62-.91,8.67-2.71a9.62,9.62,0,0,0,3.07-7.61v-.17a10.8,10.8,0,0,0-1.37-5.61,8.72,8.72,0,0,0-4-3.54,15,15,0,0,0-6.35-1.23H178.47V52h27.66c3.37,0,6-.85,7.84-2.56a9.32,9.32,0,0,0,2.77-7.21,8,8,0,0,0-2.77-6.5c-1.85-1.55-4.47-2.33-7.84-2.33H178.47V17.71h28.19A33.83,33.83,0,0,1,221,20.48a19.87,19.87,0,0,1,9.06,8.05,24.52,24.52,0,0,1,3.1,12.66,19.5,19.5,0,0,1-2,9,16.71,16.71,0,0,1-5.82,6.41A23.61,23.61,0,0,1,216.2,60,23.07,23.07,0,0,1,226,63.46a17.56,17.56,0,0,1,6.2,7.07,22.78,22.78,0,0,1,2.12,10.07v.18a24.75,24.75,0,0,1-3.13,12.76,20,20,0,0,1-9.12,8.07,34.09,34.09,0,0,1-14.4,2.78H178.47Z" transform="translate(-9.28 -17.71)"/><path class="cls-1" d="M248,17.71h16.33V34H248Zm0,24.8h16.33v61.88H248Z" transform="translate(-9.28 -17.71)"/><path class="cls-1" d="M296.92,105.28l-6.29-3.37a22.31,22.31,0,0,1-9.56-9.8,33.79,33.79,0,0,1-3.28-15.5V70a33.05,33.05,0,0,1,3.28-15.35A22.26,22.26,0,0,1,290.63,45a31.82,31.82,0,0,1,15.12-3.34,38.35,38.35,0,0,1,9.56,1.16,29.33,29.33,0,0,1,8.08,3.37,21.4,21.4,0,0,1,6,5.37L318.8,61.76a16.52,16.52,0,0,0-5.3-3.25,17.86,17.86,0,0,0-6.38-1.16q-6.21,0-9.6,3.31c-2.27,2.2-3.4,5.32-3.4,9.33v6.62q0,6.19,3.4,9.56t9.6,3.37a16.68,16.68,0,0,0,6.44-1.25,15,15,0,0,0,5.24-3.58l10.55,10.85a22.27,22.27,0,0,1-6,5.28,29.17,29.17,0,0,1-8.05,3.31,39,39,0,0,1-9.53,1.13Z" transform="translate(-9.28 -17.71)"/><path class="cls-1" d="M339.49,17.71h16.33V34H339.49Zm0,24.8h16.33v61.88H339.49Z" transform="translate(-9.28 -17.71)"/></g></g></svg>